<svg xmlns="http://www.w3.org/2000/svg" width="164" height="222" viewBox="0 0 180 244" role="img" aria-label="Repositories trophy: Bronze, 8, 30% to Silver, top 36%, newly reached"><!--trophy-kit v2 night--><title>Repositories trophy: Bronze, 8, 30% to Silver, top 36%, newly reached</title><style>@keyframes bu{0%{opacity:0;transform:scale(.4)}22%{opacity:.95}100%{opacity:0;transform:scale(1.3)}}.bu{transform-box:fill-box;transform-origin:center;animation:bu 1.9s ease-out .2s 1 both}@media (prefers-reduced-motion:reduce){.sp,.fl{animation:none}.sh,.bu{display:none}}</style><defs><linearGradient id="bg" x1="0" y1="0" x2="0" y2="1"><stop offset="0" stop-color="#171C26"/><stop offset="1" stop-color="#0A0D13"/></linearGradient><clipPath id="card"><rect width="180" height="244" rx="14"/></clipPath><filter id="grain" x="0" y="0" width="100%" height="100%"><feTurbulence type="fractalNoise" baseFrequency=".85" numOctaves="2" stitchTiles="stitch"/><feColorMatrix values="0 0 0 0 1 0 0 0 0 1 0 0 0 0 1 0 0 0 .07 0"/></filter><radialGradient id="glow" cx=".5" cy=".5" r=".5"><stop offset="0" stop-color="#CC8850" stop-opacity="0.34"/><stop offset="1" stop-color="#CC8850" stop-opacity="0"/></radialGradient><linearGradient id="mh" x1="0" y1="0" x2="1" y2="0"><stop offset="0" stop-color="#4A2711"/><stop offset="0.2" stop-color="#8F5125"/><stop offset="0.4" stop-color="#F5C69A"/><stop offset="0.54" stop-color="#CC8850"/><stop offset="0.78" stop-color="#8F5125"/><stop offset="1" stop-color="#4A2711"/></linearGradient><linearGradient id="md" x1="0" y1="0" x2="1" y2="1"><stop offset="0" stop-color="#4A2711"/><stop offset="0.2" stop-color="#8F5125"/><stop offset="0.4" stop-color="#F5C69A"/><stop offset="0.54" stop-color="#CC8850"/><stop offset="0.78" stop-color="#8F5125"/><stop offset="1" stop-color="#4A2711"/></linearGradient><linearGradient id="mdr" x1="1" y1="1" x2="0" y2="0"><stop offset="0" stop-color="#4A2711"/><stop offset="0.2" stop-color="#8F5125"/><stop offset="0.4" stop-color="#F5C69A"/><stop offset="0.54" stop-color="#CC8850"/><stop offset="0.78" stop-color="#8F5125"/><stop offset="1" stop-color="#4A2711"/></linearGradient><linearGradient id="dia" x1="0" y1="0" x2="1" y2="0"><stop offset="0" stop-color="#6CCBFF"/><stop offset=".5" stop-color="#C4B2FF"/><stop offset="1" stop-color="#F29BDD"/></linearGradient><linearGradient id="pb" x1="0" y1="0" x2="1" y2="0"><stop offset="0" stop-color="#98A2AD"/><stop offset="1" stop-color="#FFFFFF"/></linearGradient><linearGradient id="shg" x1="0" y1="0" x2="1" y2="0"><stop offset="0" stop-color="#FFFFFF" stop-opacity="0"/><stop offset=".5" stop-color="#FFFFFF" stop-opacity=".6"/><stop offset="1" stop-color="#FFFFFF" stop-opacity="0"/></linearGradient><linearGradient id="mu" gradientUnits="userSpaceOnUse" x1="38" y1="0" x2="142" y2="0"><stop offset="0" stop-color="#4A2711"/><stop offset="0.2" stop-color="#8F5125"/><stop offset="0.4" stop-color="#F5C69A"/><stop offset="0.54" stop-color="#CC8850"/><stop offset="0.78" stop-color="#8F5125"/><stop offset="1" stop-color="#4A2711"/></linearGradient><linearGradient id="cone" x1="0" y1="0" x2="0" y2="1"><stop offset="0" stop-color="#FFFFFF" stop-opacity=".13"/><stop offset="1" stop-color="#FFFFFF" stop-opacity="0"/></linearGradient><linearGradient id="rim" x1="0" y1="0" x2="0" y2="1"><stop offset="0" stop-color="#30190B"/><stop offset="1" stop-color="#8F5125"/></linearGradient><linearGradient id="pl" x1="0" y1="0" x2="0" y2="1"><stop offset="0" stop-color="#262D3A"/><stop offset="1" stop-color="#10141C"/></linearGradient><radialGradient id="en" cx=".4" cy=".35" r=".75"><stop offset="0" stop-color="#63C4BE"/><stop offset=".6" stop-color="#2FB1A9"/><stop offset="1" stop-color="#15504C"/></radialGradient><clipPath id="cup"><path d="M56 36H124C124 70 111 89 98 94C96 95 95 97 95 100V106H85V100C85 97 84 95 82 94C69 89 56 70 56 36Z"/><path d="M80 106H100C100 111 106 114 114 116V121H66V116C74 114 80 111 80 106Z"/></clipPath></defs><g clip-path="url(#card)"><rect width="180" height="244" fill="url(#bg)"/><rect width="180" height="244" filter="url(#grain)"/></g><rect x=".5" y=".5" width="179" height="243" rx="13.5" fill="none" stroke="#FFFFFF" stroke-opacity=".09"/><path d="M72 0H108L152 150H28Z" fill="url(#cone)"/><circle cx="90" cy="72" r="64" fill="url(#glow)"/><g class="bu" stroke="#CC8850" stroke-width="2" stroke-linecap="round"><path d="M116 64L162 64"/><path d="M114 73.9L143.6 86.2"/><path d="M108.4 82.4L140.9 114.9"/><path d="M99.9 88L112.2 117.6"/><path d="M90 90L90 136"/><path d="M80.1 88L67.8 117.6"/><path d="M71.6 82.4L39.1 114.9"/><path d="M66 73.9L36.4 86.2"/><path d="M64 64L18 64"/><path d="M66 54.1L36.4 41.8"/><path d="M71.6 45.6L39.1 13.1"/><path d="M80.1 40L67.8 10.4"/><path d="M90 38L90 -8"/><path d="M99.9 40L112.2 10.4"/><path d="M108.4 45.6L140.9 13.1"/><path d="M114 54.1L143.6 41.8"/></g><ellipse cx="90" cy="145" rx="48" ry="3.5" fill="#000000" fill-opacity=".6"/><rect x="62" y="121" width="56" height="7" rx="1.5" fill="#1C222D"/><rect x="62" y="121" width="56" height="1" fill="#FFFFFF" fill-opacity=".1"/><rect x="52" y="128" width="76" height="16" rx="2" fill="url(#pl)"/><rect x="52" y="128" width="76" height="1" fill="#FFFFFF" fill-opacity=".12"/><rect x="72" y="131" width="36" height="10" rx="1.5" fill="url(#mh)" opacity="1"/><rect x="74" y="132.6" width="32" height="6.8" rx="1" fill="url(#en)"/><path d="M62 44C38 42 36 76 70 84M118 44C142 42 144 76 110 84" fill="none" stroke="url(#mu)" stroke-width="6.5" stroke-linecap="round"/><path d="M62 44C38 42 36 76 70 84M118 44C142 42 144 76 110 84" fill="none" stroke="#F5C69A" stroke-opacity=".35" stroke-width="1.2" stroke-linecap="round" transform="translate(0 -1.4)"/><path d="M80 106H100C100 111 106 114 114 116V121H66V116C74 114 80 111 80 106Z" fill="url(#mu)"/><path d="M56 36H124C124 70 111 89 98 94C96 95 95 97 95 100V106H85V100C85 97 84 95 82 94C69 89 56 70 56 36Z" fill="url(#mu)"/><ellipse cx="90" cy="100" rx="7.5" ry="2.6" fill="url(#mu)" stroke="#4A2711" stroke-opacity=".6" stroke-width=".6"/><path d="M66 116H114" stroke="#4A2711" stroke-opacity=".5" stroke-width=".8"/><ellipse cx="90" cy="36" rx="34" ry="5.5" fill="url(#rim)" stroke="#F5C69A" stroke-opacity=".75" stroke-width="1.2"/><g clip-path="url(#cup)"><ellipse cx="68" cy="60" rx="3.6" ry="24" fill="#FFFFFF" fill-opacity=".30"/><ellipse cx="114" cy="56" rx="2" ry="17" fill="#FFFFFF" fill-opacity=".12"/></g><circle cx="90" cy="61.2" r="17.5" fill="#000000" fill-opacity=".25"/><circle cx="90" cy="60" r="17.5" fill="url(#md)"/><circle cx="90" cy="60" r="14.6" fill="url(#en)"/><ellipse cx="85" cy="53" rx="8.5" ry="4.2" transform="rotate(-25 85 53)" fill="#FFFFFF" fill-opacity=".28"/><g transform="translate(78.6 49.4) scale(0.95)" fill="none" stroke="#000000" stroke-width="2.2" stroke-linecap="round" stroke-linejoin="round" stroke-opacity=".35"><path d="M5 4h11a1 1 0 0 1 1 1v15H6a1 1 0 0 1-1-1z"/><path d="M17 5h2v15h-2"/></g><g transform="translate(78.6 48.6) scale(0.95)" fill="none" stroke="#F5C69A" stroke-width="2.2" stroke-linecap="round" stroke-linejoin="round"><path d="M5 4h11a1 1 0 0 1 1 1v15H6a1 1 0 0 1-1-1z"/><path d="M17 5h2v15h-2"/></g><rect x="-3" y="-3" width="6" height="6" transform="translate(64 159) rotate(45)" fill="#CC8850"/><rect x="-3" y="-3" width="6" height="6" transform="translate(77 159) rotate(45)" fill="none" stroke="#D4DAE0" stroke-opacity=".8"/><rect x="-3" y="-3" width="6" height="6" transform="translate(90 159) rotate(45)" fill="none" stroke="#4A5361" stroke-opacity="1"/><rect x="-3" y="-3" width="6" height="6" transform="translate(103 159) rotate(45)" fill="none" stroke="#4A5361" stroke-opacity="1"/><rect x="-3" y="-3" width="6" height="6" transform="translate(116 159) rotate(45)" fill="none" stroke="#4A5361" stroke-opacity="1"/><rect x="10" y="10" width="42.8" height="15" rx="7.5" fill="#FFFFFF" fill-opacity=".08"/><g transform="translate(16 20.6) scale(0.00850 -0.00850)" fill="#C9D1D9"><use href="#m84" x="0"/><use href="#m79" x="523"/><use href="#m80" x="1060"/><use href="#m51" x="1858"/><use href="#m54" x="2355"/><use href="#m37" x="2855"/></g><g clip-path="url(#card)"><polygon points="120,0 142,0 180,38 180,60" fill="url(#md)"/><polygon points="120,0 142,0 180,38 180,60" fill="none" stroke="#4A2711" stroke-opacity=".5" stroke-width=".8"/></g><g transform="rotate(45 155.5 24.5)"><g transform="translate(143.4 27.6) scale(0.00850 -0.00850)" fill="#341B0C"><use href="#s78" x="0"/><use href="#s69" x="1053"/><use href="#s87" x="1873"/></g></g><g transform="translate(41 182) scale(0.00950 -0.00950)" fill="#8B949E"><use href="#s82" x="0"/><use href="#s69" x="979"/><use href="#s80" x="1842"/><use href="#s79" x="2730"/><use href="#s83" x="3840"/><use href="#s73" x="4650"/><use href="#s84" x="5268"/><use href="#s79" x="6167"/><use href="#s82" x="7278"/><use href="#s73" x="8256"/><use href="#s69" x="8875"/><use href="#s83" x="9738"/></g><g transform="translate(83.8 209) scale(0.02800 -0.02800)" fill="#F3F5F7"><use href="#n56" x="0"/></g><rect x="24" y="217" width="132" height="4" rx="2" fill="#FFFFFF" fill-opacity=".08"/><rect x="24" y="217" width="39.6" height="4" rx="2" fill="url(#pb)"/><g transform="translate(34.4 235) scale(0.00850 -0.00850)" fill="#DE9A60"><use href="#s66" x="0"/><use href="#s82" x="815"/><use href="#s79" x="1703"/><use href="#s78" x="2724"/><use href="#s90" x="3730"/><use href="#s69" x="4532"/></g><g transform="translate(82.3 235) scale(0.00900 -0.00900)" fill="#8B949E"><use href="#m183" x="0"/></g><g transform="translate(88.2 235) scale(0.00950 -0.00950)" fill="#8B949E"><use href="#m51" x="0"/><use href="#m48" x="479"/><use href="#m37" x="981"/><use href="#m84" x="2059"/><use href="#m79" x="2563"/><use href="#m83" x="3335"/><use href="#m73" x="3822"/><use href="#m76" x="4099"/><use href="#m86" x="4566"/><use href="#m69" x="5090"/><use href="#m82" x="5578"/></g><defs><path id="m37" d="M54 557Q54 598 74 633Q94 668 128 688Q163 709 204 709Q244 709 278 688Q313 668 333 633Q353 598 353 557Q353 515 333 480Q313 445 279 424Q245 404 204 404Q163 404 128 424Q94 445 74 480Q54 515 54 557ZM162 14 526 692Q530 700 541 700H599Q606 700 608 696Q610 692 607 686L243 8Q239 0 228 0H170Q163 0 161 4Q159 8 162 14ZM289 557Q289 594 264 620Q239 647 204 647Q168 647 143 621Q118 595 118 557Q118 519 143 492Q168 466 204 466Q240 466 264 492Q289 519 289 557ZM419 144Q419 185 439 220Q459 255 493 276Q527 296 568 296Q609 296 643 276Q677 255 697 220Q717 185 717 144Q717 102 697 67Q677 32 643 12Q609 -9 568 -9Q527 -9 493 12Q459 32 439 67Q419 102 419 144ZM654 144Q654 182 629 208Q604 234 568 234Q532 234 507 208Q482 182 482 144Q482 106 507 80Q532 53 568 53Q604 53 629 80Q654 106 654 144Z"/><path id="m48" d="M38 183V517Q38 604 89 658Q140 711 224 711Q309 711 360 658Q412 604 412 517V183Q412 96 360 42Q309 -11 224 -11Q140 -11 89 42Q38 96 38 183ZM296 176V524Q296 563 276 586Q257 610 224 610Q192 610 173 586Q154 563 154 524V176Q154 137 173 114Q192 90 224 90Q257 90 276 114Q296 137 296 176Z"/><path id="m51" d="M387 218Q387 169 380 134Q368 66 326 29Q283 -8 210 -8Q134 -8 86 32Q38 73 32 143Q30 165 28 207Q28 219 40 219H132Q144 219 144 207Q146 173 148 156Q153 125 169 108Q185 92 210 92Q234 92 250 108Q266 123 271 152Q276 182 276 230Q276 281 269 315Q263 341 248 355Q233 369 210 369Q195 369 183 360Q177 356 174 356Q172 356 166 360L119 408Q115 412 115 417Q115 421 118 425L243 595Q245 597 244 599Q242 601 239 601H49Q44 601 40 604Q37 608 37 613V688Q37 693 40 696Q44 700 49 700H373Q378 700 382 696Q385 693 385 688V609Q385 602 380 594L266 438Q262 432 268 431Q309 426 338 392Q368 358 378 307Q387 267 387 218Z"/><path id="m54" d="M401 216Q401 193 399 151Q394 75 346 34Q299 -8 221 -8Q147 -8 101 30Q55 69 46 144Q40 171 40 207L39 532Q39 613 88 660Q138 708 219 708Q295 708 343 660Q391 612 391 532V507Q391 502 388 498Q384 495 379 495H287Q282 495 278 498Q275 502 275 507V526Q275 560 258 582Q242 605 219 605Q191 605 174 583Q156 561 156 526V423Q156 420 158 419Q160 418 162 420Q191 447 234 447Q303 447 346 403Q389 359 396 286Q401 253 401 216ZM284 224Q284 250 279 295Q267 353 220 353Q196 353 180 338Q165 322 160 292Q156 257 156 224Q156 195 159 157Q164 125 180 108Q195 91 220 91Q245 91 260 109Q276 127 281 160Q284 196 284 224Z"/><path id="m69" d="M391 600H175Q170 600 170 595V406Q170 401 175 401H303Q308 401 312 398Q315 394 315 389V312Q315 307 312 304Q308 300 303 300H175Q170 300 170 295V105Q170 100 175 100H391Q396 100 400 96Q403 93 403 88V12Q403 7 400 4Q396 0 391 0H66Q61 0 58 4Q54 7 54 12V688Q54 693 58 696Q61 700 66 700H391Q396 700 400 696Q403 693 403 688V612Q403 607 400 604Q396 600 391 600Z"/><path id="m73" d="M54 12V688Q54 693 58 696Q61 700 66 700H158Q163 700 166 696Q170 693 170 688V12Q170 7 166 4Q163 0 158 0H66Q61 0 58 4Q54 7 54 12Z"/><path id="m76" d="M54 12V688Q54 693 58 696Q61 700 66 700H158Q163 700 166 696Q170 693 170 688V105Q170 100 175 100H391Q396 100 400 96Q403 93 403 88V12Q403 7 400 4Q396 0 391 0H66Q61 0 58 4Q54 7 54 12Z"/><path id="m79" d="M42 182V518Q42 604 94 656Q147 708 233 708Q319 708 372 656Q425 604 425 518V182Q425 96 372 44Q319 -8 233 -8Q147 -8 94 44Q42 96 42 182ZM309 177V523Q309 561 288 584Q267 608 233 608Q199 608 178 584Q158 561 158 523V177Q158 139 178 116Q199 92 233 92Q267 92 288 116Q309 139 309 177Z"/><path id="m80" d="M432 495Q432 405 384 350Q337 295 259 295H174Q169 295 169 290V12Q169 7 166 4Q162 0 157 0H65Q60 0 56 4Q53 7 53 12V689Q53 694 56 698Q60 701 65 701H253Q306 701 346 675Q387 649 410 602Q432 555 432 495ZM316 492Q316 542 294 572Q271 601 234 601H174Q169 601 169 596V391Q169 386 174 386H234Q271 386 294 414Q316 443 316 492Z"/><path id="m82" d="M318 10 233 297Q231 301 228 301H175Q170 301 170 296V12Q170 7 166 4Q163 0 158 0H66Q61 0 58 4Q54 7 54 12V688Q54 693 58 696Q61 700 66 700H254Q307 700 348 674Q388 649 410 602Q433 556 433 496Q433 434 409 389Q385 344 342 321Q338 320 339 315L437 14Q438 12 438 9Q438 0 427 0H331Q321 0 318 10ZM170 595V396Q170 391 175 391H236Q272 391 294 419Q317 447 317 495Q317 543 294 572Q272 600 236 600H175Q170 600 170 595Z"/><path id="m83" d="M34 173V199Q34 204 38 208Q41 211 46 211H137Q142 211 146 208Q149 204 149 199V179Q149 140 168 116Q188 92 219 92Q250 92 270 114Q290 137 290 174Q290 200 279 219Q268 238 248 255Q228 272 184 304Q134 340 104 368Q73 396 52 436Q32 475 32 527Q32 610 82 659Q132 708 214 708Q297 708 348 656Q399 605 399 520V496Q399 491 396 488Q392 484 387 484H297Q292 484 288 488Q285 491 285 496V522Q285 561 266 584Q246 608 214 608Q184 608 165 586Q146 565 146 527Q146 491 166 466Q187 441 247 397Q308 352 339 324Q370 295 387 261Q404 227 404 180Q404 95 353 44Q302 -8 219 -8Q136 -8 85 42Q34 92 34 173Z"/><path id="m84" d="M425 688V612Q425 607 422 604Q418 600 413 600H286Q281 600 281 595V12Q281 7 278 4Q274 0 269 0H177Q172 0 168 4Q165 7 165 12V595Q165 600 160 600H40Q35 600 32 604Q28 607 28 612V688Q28 693 32 696Q35 700 40 700H413Q418 700 422 696Q425 693 425 688Z"/><path id="m86" d="M171 11 28 687 27 691Q27 700 38 700H139Q151 700 152 689L235 208Q236 205 238 205Q240 205 241 208L322 689Q323 700 335 700H433Q446 700 443 687L299 11Q297 0 286 0H184Q173 0 171 11Z"/><path id="m183" d="M37 286Q37 317 57 337Q77 357 108 357Q139 357 158 337Q178 317 178 286Q178 255 158 235Q138 215 108 215Q77 215 57 235Q37 255 37 286Z"/><path id="n56" d="M341 362Q374 341 390 303Q410 260 410 202Q410 156 394 110Q373 55 327 24Q281 -8 220 -8Q159 -8 113 23Q67 54 46 110Q30 151 30 202Q30 258 48 300Q62 338 99 361Q105 364 99 367Q64 391 49 427Q30 471 30 520Q30 574 49 613Q70 660 116 686Q161 713 220 713Q278 713 323 688Q368 662 390 614Q410 572 410 520Q410 471 391 428Q376 392 340 369Q336 365 341 362ZM169 507Q169 484 176 461Q180 441 192 429Q203 417 220 417Q237 417 249 430Q261 442 265 462Q271 482 271 506Q271 532 264 550Q259 569 248 580Q236 592 220 592Q203 592 192 580Q180 569 175 548Q169 530 169 507ZM271 211Q271 241 265 263Q260 285 248 298Q237 310 220 310Q202 310 190 297Q178 284 174 261Q169 238 169 213Q169 185 173 165Q177 141 189 127Q201 113 220 113Q239 113 252 128Q264 142 267 167Q271 193 271 211Z"/><path id="s66" d="M119 73V627Q118 653 100 672Q81 690 55 690H42V700H331Q404 700 462 682Q519 665 552 628Q585 590 585 529Q585 483 568 451Q550 419 522 402Q494 385 463 381Q513 377 554 353Q594 329 617 289Q640 249 640 195Q640 131 605 88Q570 44 506 22Q443 0 359 0H42V10H55Q81 10 100 28Q118 47 119 73ZM269 657V45H315Q360 45 394 62Q429 79 448 115Q468 151 468 207Q468 251 454 282Q441 313 418 332Q396 352 366 361Q336 370 303 370V379Q326 379 348 386Q370 394 388 410Q405 426 415 452Q425 479 425 516Q425 567 410 598Q394 629 365 643Q336 657 298 657Z"/><path id="s69" d="M606 205 560 0H42V10H55Q81 10 100 28Q118 47 119 73V627Q118 653 100 672Q81 690 55 690H42V700H423Q445 700 470 703Q494 706 515 710Q536 714 545 718V543H535V555Q535 601 508 629Q484 653 447 657H269V366H401Q438 367 462 392Q486 416 486 453V460H496V230H486V238Q486 275 462 299Q438 323 401 324H269V43H400Q450 43 488 62Q526 82 553 118Q580 155 596 205Z"/><path id="s73" d="M119 73V627Q118 653 100 672Q81 690 55 690H42V700H346V690H333Q307 690 288 672Q270 653 269 627V73Q270 47 288 28Q307 10 333 10H346V0H42V10H55Q81 10 100 28Q118 47 119 73Z"/><path id="s78" d="M108 715 613 234V629Q612 655 594 672Q577 690 551 690H532V700H835V690H817Q792 690 774 672Q756 655 755 629V114Q755 77 758 48Q761 18 764 2L767 -14H758L252 467L253 71Q253 46 271 28Q289 10 314 10H333V0H30V10H49Q74 10 92 28Q110 46 110 71V590Q110 646 104 681L98 715Z"/><path id="s79" d="M442 714Q562 714 650 670Q739 625 788 544Q836 463 836 350Q836 238 788 156Q739 75 650 30Q562 -14 442 -14Q322 -14 234 30Q145 75 97 156Q49 237 49 350Q49 462 97 544Q145 625 234 670Q322 714 442 714ZM442 28Q513 28 564 68Q615 107 643 179Q671 251 671 350Q671 449 643 521Q615 593 564 632Q513 672 442 672Q372 672 320 632Q269 593 241 521Q213 449 213 350Q213 251 241 179Q269 107 320 68Q372 28 442 28Z"/><path id="s80" d="M122 73V627Q122 653 103 672Q84 690 58 690H46L45 700H379Q465 700 518 675Q572 650 598 606Q625 563 627 508Q629 457 610 415Q591 373 558 345Q525 317 482 304Q440 292 394 298Q349 305 306 333V343H319Q331 343 350 347Q370 351 392 362Q413 373 432 396Q451 419 461 457Q465 470 466 486Q468 503 467 517Q466 581 432 620Q399 658 338 658H272V73Q273 47 292 28Q310 10 336 10H349V0H45V10H58Q84 10 102 28Q121 47 122 73Z"/><path id="s82" d="M122 73V627Q121 653 102 672Q84 690 58 690H45V700H388Q433 700 476 690Q519 680 552 658Q586 636 606 600Q626 564 626 511Q626 469 608 428Q591 386 555 356Q519 327 462 321Q494 311 520 285Q547 259 564 233Q565 231 576 215Q586 199 602 176Q617 152 634 128Q651 104 665 86Q687 59 705 42Q723 26 743 18Q763 11 789 10V0H691Q637 0 593 10Q549 19 515 42Q481 65 456 104Q448 116 438 134Q429 153 419 174Q409 195 400 214Q390 234 383 250Q376 266 373 275Q360 307 342 323Q325 339 305 342V352H336Q363 352 388 363Q414 374 434 399Q454 424 462 468Q464 477 466 489Q467 501 466 516Q463 588 430 622Q397 655 348 656Q334 657 318 656Q301 656 288 656H272V73Q272 47 291 28Q310 10 336 10H348V0H45V10H58Q84 10 102 28Q121 47 122 73Z"/><path id="s83" d="M277 714Q297 714 326 712Q356 710 388 707Q399 705 409 704H476L475 692Q475 692 475 692L463 557H453Q453 609 414 640Q376 672 312 672Q254 672 218 644Q183 616 181 576Q180 546 200 524Q220 502 251 483L442 359Q488 333 512 291Q535 249 532 193Q527 95 457 40Q387 -14 267 -14Q223 -14 182 -6Q140 1 108 14Q76 28 57 47Q49 69 50 100Q51 131 60 163Q68 195 81 216H90Q86 165 108 122Q131 78 174 52Q218 27 278 28Q344 29 380 62Q416 94 416 140Q416 171 398 196Q379 221 337 244L162 360Q109 390 85 437Q61 484 66 539Q71 591 97 630Q123 670 168 692Q214 714 277 714Z"/><path id="s84" d="M654 719V544L644 545V556Q644 603 616 630Q589 658 542 659H409V73Q410 47 428 28Q447 10 473 10H486V0H182V10H195Q221 10 240 28Q258 47 259 73V659H125Q79 658 52 630Q24 603 24 556V545L14 544V719Q24 715 44 711Q65 707 90 704Q115 701 136 701H532Q554 701 578 704Q603 707 624 711Q645 715 654 719Z"/><path id="s87" d="M537 716V714L736 275L837 628Q845 658 832 674Q819 690 799 690H790V700H999V690H991Q968 690 941 676Q917 662 905 634L736 93L731 76Q726 58 722 32Q718 7 719 -18H709L491 465L333 93L327 76Q321 59 316 34Q310 9 309 -18H300L58 637Q45 663 23 676Q-3 690 -26 690H-34V700H271V690H262Q243 690 228 674Q214 658 225 628H223L347 280L528 716Z"/><path id="s90" d="M605 714V705L234 42H443Q509 42 556 86Q604 129 623 201H633L597 0H45V9L411 659H170Q123 658 96 630Q69 603 69 556V544H59V719Q69 715 90 711Q110 707 135 704Q160 701 181 701H499Q519 701 542 703Q564 705 582 708Q599 711 605 714Z"/></defs></svg>
