<svg xmlns="http://www.w3.org/2000/svg" width="400" height="174" viewBox="0 0 400 174" role="img" aria-labelledby="t">
<title id="t">Top languages across public repositories</title>
<rect x="0.5" y="0.5" width="399" height="173" rx="6" fill="#fcfcfb" stroke="#e1e0d9"/>

<style>text{font-family:-apple-system, BlinkMacSystemFont, 'Segoe UI', Helvetica, Arial, sans-serif}</style>
<text x="20" y="30" font-size="15" font-weight="600" fill="#0b0b0b">Top languages</text>
<text x="380" y="30" font-size="11" text-anchor="end" fill="#898781">by bytes, public repositories</text>
<text x="20" y="60" font-size="12" fill="#52514e">Python</text>
<rect x="130" y="50" width="190" height="12" rx="4" fill="#e1e0d9"/>
<rect x="130" y="50" width="169.8" height="12" rx="4" fill="#3572A5"/>
<rect x="130" y="50" width="4" height="12" fill="#3572A5"/>
<text x="380" y="60" font-size="12" font-weight="600" text-anchor="end" fill="#0b0b0b">89.4%</text>
<text x="20" y="88" font-size="12" fill="#52514e">Shell</text>
<rect x="130" y="78" width="190" height="12" rx="4" fill="#e1e0d9"/>
<rect x="130" y="78" width="17.4" height="12" rx="4" fill="#89e051"/>
<rect x="130" y="78" width="4" height="12" fill="#89e051"/>
<text x="380" y="88" font-size="12" font-weight="600" text-anchor="end" fill="#0b0b0b">9.2%</text>
<text x="20" y="116" font-size="12" fill="#52514e">Makefile</text>
<rect x="130" y="106" width="190" height="12" rx="4" fill="#e1e0d9"/>
<rect x="130" y="106" width="4.0" height="12" rx="4" fill="#427819"/>
<text x="380" y="116" font-size="12" font-weight="600" text-anchor="end" fill="#0b0b0b">0.8%</text>
<text x="20" y="144" font-size="12" fill="#52514e">JavaScript</text>
<rect x="130" y="134" width="190" height="12" rx="4" fill="#e1e0d9"/>
<rect x="130" y="134" width="4.0" height="12" rx="4" fill="#f1e05a"/>
<text x="380" y="144" font-size="12" font-weight="600" text-anchor="end" fill="#0b0b0b">0.7%</text>
</svg>
