<svg xmlns="http://www.w3.org/2000/svg" width="104" height="124" viewBox="0 0 104 124" role="img" aria-label="Tidy: 0% (0 of 5)"><!--trophy-kit v2 night--><title>Tidy: 0% (0 of 5)</title><defs><linearGradient id="bg" x1="0" y1="0" x2="0" y2="1"><stop offset="0" stop-color="#171C26"/><stop offset="1" stop-color="#0A0D13"/></linearGradient><clipPath id="card"><rect width="104" height="124" rx="12"/></clipPath><filter id="grain" x="0" y="0" width="100%" height="100%"><feTurbulence type="fractalNoise" baseFrequency=".85" numOctaves="2" stitchTiles="stitch"/><feColorMatrix values="0 0 0 0 1 0 0 0 0 1 0 0 0 0 1 0 0 0 .07 0"/></filter><radialGradient id="glow" cx=".5" cy=".5" r=".5"><stop offset="0" stop-color="#5A626D" stop-opacity="0"/><stop offset="1" stop-color="#5A626D" stop-opacity="0"/></radialGradient><linearGradient id="mh" x1="0" y1="0" x2="1" y2="0"><stop offset="0" stop-color="#252A32"/><stop offset="0.2" stop-color="#3A414B"/><stop offset="0.4" stop-color="#838B96"/><stop offset="0.54" stop-color="#5A626D"/><stop offset="0.78" stop-color="#3A414B"/><stop offset="1" stop-color="#252A32"/></linearGradient><linearGradient id="md" x1="0" y1="0" x2="1" y2="1"><stop offset="0" stop-color="#252A32"/><stop offset="0.2" stop-color="#3A414B"/><stop offset="0.4" stop-color="#838B96"/><stop offset="0.54" stop-color="#5A626D"/><stop offset="0.78" stop-color="#3A414B"/><stop offset="1" stop-color="#252A32"/></linearGradient><linearGradient id="mdr" x1="1" y1="1" x2="0" y2="0"><stop offset="0" stop-color="#252A32"/><stop offset="0.2" stop-color="#3A414B"/><stop offset="0.4" stop-color="#838B96"/><stop offset="0.54" stop-color="#5A626D"/><stop offset="0.78" stop-color="#3A414B"/><stop offset="1" stop-color="#252A32"/></linearGradient><linearGradient id="dia" x1="0" y1="0" x2="1" y2="0"><stop offset="0" stop-color="#6CCBFF"/><stop offset=".5" stop-color="#C4B2FF"/><stop offset="1" stop-color="#F29BDD"/></linearGradient><linearGradient id="pb" x1="0" y1="0" x2="1" y2="0"><stop offset="0" stop-color="#8F5125"/><stop offset="1" stop-color="#F5C69A"/></linearGradient><linearGradient id="shg" x1="0" y1="0" x2="1" y2="0"><stop offset="0" stop-color="#FFFFFF" stop-opacity="0"/><stop offset=".5" stop-color="#FFFFFF" stop-opacity=".6"/><stop offset="1" stop-color="#FFFFFF" stop-opacity="0"/></linearGradient><radialGradient id="en" cx=".42" cy=".36" r=".75"><stop offset="0" stop-color="#6D7279"/><stop offset=".55" stop-color="#494F58"/><stop offset="1" stop-color="#373B42"/></radialGradient><linearGradient id="ig" gradientUnits="userSpaceOnUse" x1="0" y1="34" x2="0" y2="62"><stop offset="0" stop-color="#7D858F"/><stop offset="1" stop-color="#4E5661"/></linearGradient><radialGradient id="gl" cx=".5" cy=".5" r=".5"><stop offset="0" stop-color="#FFFFFF" stop-opacity=".45"/><stop offset="1" stop-color="#FFFFFF" stop-opacity="0"/></radialGradient><clipPath id="fc"><circle cx="52" cy="48" r="27"/></clipPath></defs><g clip-path="url(#card)"><rect width="104" height="124" fill="url(#bg)"/><rect width="104" height="124" filter="url(#grain)"/></g><rect x=".5" y=".5" width="103" height="123" rx="11.5" fill="none" stroke="#FFFFFF" stroke-opacity=".09"/><circle cx="52" cy="48" r="48" fill="url(#glow)"/><circle cx="52" cy="48" r="38" fill="none" stroke="#FFFFFF" stroke-opacity=".08" stroke-width="2.6"/><circle cx="52" cy="49.5" r="34" fill="#000000" fill-opacity=".45"/><circle cx="52" cy="48" r="33" fill="url(#md)"/><circle cx="52" cy="48" r="29.6" fill="url(#mdr)"/><circle cx="52" cy="48" r="27" fill="url(#en)"/><g transform="translate(38.8 36) scale(1.1)" fill="none" stroke="#000000" stroke-width="1.9" stroke-linecap="round" stroke-linejoin="round" stroke-opacity=".35"><path d="M4 7h16M9 7V4h6v3M6 7l1 13h10l1-13"/><path d="M10 11v6M14 11v6"/></g><g transform="translate(38.8 34.2) scale(1.1)" fill="none" stroke="url(#ig)" stroke-width="1.9" stroke-linecap="round" stroke-linejoin="round"><path d="M4 7h16M9 7V4h6v3M6 7l1 13h10l1-13"/><path d="M10 11v6M14 11v6"/></g><g clip-path="url(#fc)"><ellipse cx="42" cy="34" rx="20" ry="10" transform="rotate(-32 42 34)" fill="url(#gl)" opacity=".25"/></g><g transform="translate(40.7 101) scale(0.00900 -0.00900)" fill="#8B949E"><use href="#s84" x="0"/><use href="#s105" x="700"/><use href="#s100" x="1086"/><use href="#s121" x="1867"/></g><g transform="translate(36 114) scale(0.00850 -0.00850)" fill="#8B949E"><use href="#m48" x="0"/><use href="#m37" x="544"/><use href="#m183" x="1704"/><use href="#m48" x="2308"/><use href="#m47" x="2852"/><use href="#m53" x="3332"/></g><defs><path id="m37" d="M54 557Q54 598 74 633Q94 668 128 688Q163 709 204 709Q244 709 278 688Q313 668 333 633Q353 598 353 557Q353 515 333 480Q313 445 279 424Q245 404 204 404Q163 404 128 424Q94 445 74 480Q54 515 54 557ZM162 14 526 692Q530 700 541 700H599Q606 700 608 696Q610 692 607 686L243 8Q239 0 228 0H170Q163 0 161 4Q159 8 162 14ZM289 557Q289 594 264 620Q239 647 204 647Q168 647 143 621Q118 595 118 557Q118 519 143 492Q168 466 204 466Q240 466 264 492Q289 519 289 557ZM419 144Q419 185 439 220Q459 255 493 276Q527 296 568 296Q609 296 643 276Q677 255 697 220Q717 185 717 144Q717 102 697 67Q677 32 643 12Q609 -9 568 -9Q527 -9 493 12Q459 32 439 67Q419 102 419 144ZM654 144Q654 182 629 208Q604 234 568 234Q532 234 507 208Q482 182 482 144Q482 106 507 80Q532 53 568 53Q604 53 629 80Q654 106 654 144Z"/><path id="m47" d="M21 14 226 690Q229 700 239 700H331Q337 700 340 696Q343 692 341 686L136 10Q133 0 123 0H31Q25 0 22 4Q19 8 21 14Z"/><path id="m48" d="M38 183V517Q38 604 89 658Q140 711 224 711Q309 711 360 658Q412 604 412 517V183Q412 96 360 42Q309 -11 224 -11Q140 -11 89 42Q38 96 38 183ZM296 176V524Q296 563 276 586Q257 610 224 610Q192 610 173 586Q154 563 154 524V176Q154 137 173 114Q192 90 224 90Q257 90 276 114Q296 137 296 176Z"/><path id="m53" d="M400 216Q400 175 396 146Q391 72 344 32Q297 -8 219 -8Q145 -8 99 30Q53 68 43 144L40 172Q40 184 52 184H144Q156 184 157 172Q157 166 159 154Q171 92 219 92Q244 92 260 108Q275 124 280 153Q284 178 284 217Q284 254 278 281Q273 307 258 322Q242 336 219 336Q171 336 157 290Q154 279 144 279H51Q46 279 42 282Q39 286 39 291V688Q39 693 42 696Q46 700 51 700H377Q382 700 386 696Q389 693 389 688V612Q389 607 386 604Q382 600 377 600H160Q155 600 155 595V400Q155 397 157 396Q159 396 161 398Q178 416 202 426Q227 437 254 437Q314 437 350 398Q387 360 394 290Q400 259 400 216Z"/><path id="m183" d="M37 286Q37 317 57 337Q77 357 108 357Q139 357 158 337Q178 317 178 286Q178 255 158 235Q138 215 108 215Q77 215 57 235Q37 255 37 286Z"/><path id="s84" d="M654 719V544L644 545V556Q644 603 616 630Q589 658 542 659H409V73Q410 47 428 28Q447 10 473 10H486V0H182V10H195Q221 10 240 28Q258 47 259 73V659H125Q79 658 52 630Q24 603 24 556V545L14 544V719Q24 715 44 711Q65 707 90 704Q115 701 136 701H532Q554 701 578 704Q603 707 624 711Q645 715 654 719Z"/><path id="s100" d="M371 600Q478 600 555 564Q632 529 673 462Q714 394 714 300Q714 206 673 139Q632 72 555 36Q478 0 371 0H33V10H46Q69 10 86 26Q102 42 102 64V537Q101 560 84 575Q68 590 45 590H33V600ZM246 561V40H359Q453 40 507 109Q561 178 561 300Q561 422 507 492Q453 561 359 561Z"/><path id="s105" d="M104 63V537Q104 560 87 575Q70 590 46 590H34V600H318L317 590H306Q282 590 266 575Q249 560 248 537V63Q249 41 266 26Q282 10 306 10H318V0H34V10H47Q70 10 87 26Q104 41 104 63Z"/><path id="s121" d="M496 538Q507 557 496 574Q485 590 466 590H454V600H669V590H656Q629 590 606 576Q584 562 570 544L390 267V63Q391 41 408 26Q424 10 446 10H458V0H178V10H190Q213 10 229 26Q245 41 246 63V267L69 541Q55 562 32 576Q9 590 -19 590H-31V600H273V590H262Q242 590 232 573Q222 558 229 542L363 311L496 538Z"/></defs></svg>
